<?xml version="1.0" standalone="no"?>
<!DOCTYPE svg PUBLIC "-//W3C//DTD SVG 20010904//EN"
 "http://www.w3.org/TR/2001/REC-SVG-20010904/DTD/svg10.dtd">
<svg version="1.0" xmlns="http://www.w3.org/2000/svg"
 width="700.000000pt" height="700.000000pt" viewBox="0 0 700.000000 700.000000"
 preserveAspectRatio="xMidYMid meet">
<metadata>
Created by potrace 1.14, written by Peter Selinger 2001-2017
</metadata>
<g transform="translate(0.000000,700.000000) scale(0.100000,-0.100000)"
fill="#000000" stroke="none">
<path d="M3438 6478 c-21 -4 -56 -19 -78 -33 -98 -62 -140 -144 -140 -275 l0
-79 -47 21 c-98 43 -222 19 -300 -59 -50 -50 -74 -102 -80 -175 -11 -114 40
-205 151 -271 39 -23 63 -43 55 -45 -84 -26 -144 -78 -183 -157 -20 -42 -24
-63 -22 -125 1 -49 8 -87 20 -110 18 -35 94 -120 107 -120 9 0 239 -136 251
-148 5 -5 -28 -30 -79 -59 -95 -53 -336 -193 -387 -224 -17 -10 -38 -22 -46
-26 -8 -3 -39 -21 -68 -40 -29 -18 -56 -33 -60 -33 -4 0 -24 -11 -45 -25 -20
-14 -37 -22 -38 -18 -1 4 -2 87 -3 183 -2 158 -5 180 -25 222 -51 106 -151
168 -266 164 -63 -2 -140 -33 -172 -68 -9 -10 -19 -18 -22 -18 -3 0 -7 35 -8
77 -4 132 -51 211 -158 264 -57 28 -71 31 -127 26 -76 -6 -84 -8 -127 -31 -75
-40 -131 -123 -139 -208 -2 -27 -6 -48 -8 -48 -1 0 -29 15 -61 34 -82 47 -126
59 -198 54 -74 -6 -122 -28 -173 -77 -69 -67 -96 -157 -77 -253 18 -92 66
-151 175 -211 24 -13 45 -29 47 -33 2 -5 -10 -16 -26 -25 -15 -9 -41 -33 -56
-53 -142 -186 -10 -450 223 -449 55 0 75 6 144 41 69 37 78 39 73 21 -20 -61
-5 -159 33 -218 75 -116 237 -161 357 -100 54 28 144 77 160 89 6 4 35 21 65
38 l55 31 -1 -420 c-1 -231 -4 -422 -7 -425 -5 -5 -42 15 -187 100 -100 59
-133 70 -205 71 -54 0 -81 -6 -119 -24 -119 -59 -184 -191 -153 -313 l7 -27
-79 41 c-69 36 -88 41 -143 41 -157 0 -276 -115 -283 -274 -4 -79 54 -192 116
-228 16 -9 29 -19 29 -22 0 -4 -30 -25 -67 -47 -79 -46 -110 -78 -141 -145
-22 -46 -30 -122 -18 -172 19 -82 70 -146 150 -185 60 -30 72 -32 138 -28 71
5 92 13 184 69 37 22 44 17 44 -29 0 -42 43 -127 84 -166 47 -44 123 -76 181
-76 178 0 295 128 290 318 -1 28 1 52 4 52 2 0 14 -9 25 -19 51 -46 99 -64
176 -65 122 0 212 55 262 162 19 42 22 66 24 222 1 96 2 178 3 181 1 8 731
-413 731 -421 0 -3 -59 -38 -131 -79 -72 -40 -146 -87 -165 -103 -84 -74 -115
-191 -79 -299 22 -66 100 -147 164 -169 l43 -16 -66 -39 c-72 -42 -106 -79
-138 -152 -25 -56 -21 -157 8 -218 61 -129 228 -194 355 -138 l47 21 4 -92 c5
-107 27 -164 83 -219 139 -135 365 -96 445 78 23 49 28 80 29 167 l1 67 47
-21 c62 -27 154 -27 217 1 138 60 204 233 142 366 -28 62 -73 107 -144 148
-53 29 -54 31 -31 40 127 50 199 146 199 267 0 126 -61 201 -255 310 -71 40
-132 75 -135 77 -3 3 4 10 15 16 66 40 255 150 350 203 11 6 76 44 145 84 181
105 204 118 214 119 6 1 10 -69 11 -166 1 -93 7 -186 13 -208 12 -43 45 -92
83 -127 98 -86 271 -84 367 5 12 11 22 19 23 16 0 -2 2 -39 5 -83 9 -182 134
-299 304 -283 125 11 225 102 245 222 11 68 10 67 72 31 82 -47 126 -59 197
-54 143 12 245 114 254 255 8 120 -40 204 -159 274 -38 23 -69 44 -69 48 0 4
14 15 31 25 80 47 127 167 107 275 -24 132 -139 225 -277 224 -55 0 -75 -6
-143 -42 -72 -37 -79 -39 -72 -19 14 46 6 127 -19 180 -42 93 -120 151 -221
164 -69 10 -127 -11 -279 -99 -76 -43 -141 -77 -144 -73 -9 9 -9 827 -1 832 4
3 70 -31 145 -75 76 -43 158 -85 182 -91 127 -34 275 42 324 167 19 49 25 131
13 171 -7 20 -1 19 71 -18 87 -45 134 -53 208 -38 159 34 258 206 204 358 -20
58 -79 135 -109 145 -11 4 -20 10 -20 15 0 4 31 26 69 49 82 48 125 96 147
165 47 140 -16 280 -153 343 -94 43 -206 25 -317 -52 -25 -18 -33 -19 -33 -2
-6 243 -297 368 -468 201 -60 -58 -86 -120 -89 -211 -1 -40 -4 -74 -7 -75 -2
-2 -20 9 -39 23 -54 40 -99 54 -170 54 -112 -1 -200 -58 -250 -161 -22 -45
-24 -62 -25 -224 -1 -96 -3 -177 -6 -180 -7 -8 -729 412 -724 421 3 4 62 40
132 80 69 40 141 86 160 102 104 91 123 244 46 361 -30 45 -49 61 -104 89
l-67 33 34 22 c19 12 37 22 42 22 16 0 93 82 114 123 31 57 32 183 3 242 -27
54 -87 112 -143 137 -61 27 -155 27 -215 0 l-45 -20 -4 92 c-5 107 -27 164
-84 220 -69 67 -163 95 -256 74z m-23 -2143 c54 -19 121 -19 180 1 39 14 52
15 68 5 11 -7 36 -22 56 -33 285 -160 462 -268 457 -277 -9 -15 18 -98 46
-138 15 -23 42 -51 58 -63 l30 -21 0 -308 0 -308 -38 -30 c-42 -34 -88 -117
-97 -175 -5 -35 -12 -42 -78 -78 -40 -23 -79 -45 -87 -51 -60 -38 -365 -209
-374 -209 -6 0 -29 7 -51 15 -53 19 -117 19 -179 -1 l-51 -16 -260 151 -260
151 -19 71 c-16 61 -25 78 -72 125 l-54 54 0 301 0 301 44 43 c50 48 84 109
90 157 2 18 4 36 5 40 0 4 35 27 77 50 122 69 161 92 304 176 74 44 142 80
150 81 8 0 33 -6 55 -14z"/>
<path d="M3366 4175 c-114 -60 -411 -236 -434 -258 -37 -34 -70 -97 -79 -152
-5 -27 -8 -161 -7 -296 2 -244 2 -246 29 -302 14 -32 43 -71 63 -88 40 -33
391 -239 457 -268 52 -23 139 -26 192 -7 46 16 408 223 462 263 46 35 89 106
97 162 4 25 7 159 7 296 l0 250 -27 57 c-15 32 -45 72 -66 90 -47 41 -431 261
-482 277 -64 21 -143 11 -212 -24z m171 -585 c52 -25 58 -34 58 -95 0 -49 0
-50 -48 -78 l-48 -28 -47 29 c-46 28 -47 30 -48 81 -1 52 0 53 45 82 25 16 46
29 47 29 0 0 19 -9 41 -20z"/>
</g>
</svg>
